<svg width="24" height="26" viewBox="0 0 24 26" fill="none" xmlns="http://www.w3.org/2000/svg">
<path d="M2.33733 15.1697C2.11656 15.1704 1.9001 15.1085 1.71311 14.9911C1.52612 14.8738 1.37627 14.7057 1.28097 14.5066C1.18568 14.3074 1.14884 14.0853 1.17475 13.8661C1.20066 13.6468 1.28824 13.4394 1.42733 13.268L12.9773 1.368C13.064 1.26799 13.182 1.20041 13.3121 1.17635C13.4423 1.15229 13.5767 1.17318 13.6934 1.23559C13.81 1.29799 13.902 1.39821 13.9542 1.51979C14.0064 1.64137 14.0158 1.77709 13.9807 1.90466L11.7407 8.928C11.6746 9.10478 11.6524 9.29494 11.676 9.48217C11.6996 9.66941 11.7683 9.84812 11.8761 10.003C11.9839 10.1579 12.1277 10.2843 12.2952 10.3714C12.4626 10.4584 12.6486 10.5036 12.8373 10.503H21.004C21.2248 10.5022 21.4412 10.5642 21.6282 10.6815C21.8152 10.7989 21.9651 10.9669 22.0604 11.1661C22.1557 11.3652 22.1925 11.5873 22.1666 11.8066C22.1407 12.0258 22.0531 12.2332 21.914 12.4047L10.364 24.3047C10.2774 24.4047 10.1593 24.4722 10.0292 24.4963C9.89908 24.5204 9.76465 24.4995 9.64798 24.4371C9.53131 24.3747 9.43932 24.2744 9.38711 24.1529C9.3349 24.0313 9.32557 23.8956 9.36067 23.768L11.6007 16.7447C11.6667 16.5679 11.6889 16.3777 11.6653 16.1905C11.6417 16.0033 11.5731 15.8245 11.4652 15.6697C11.3574 15.5148 11.2136 15.3884 11.0462 15.3013C10.8788 15.2142 10.6927 15.1691 10.504 15.1697H2.33733Z" stroke="white" stroke-width="2.33333" stroke-linecap="round" stroke-linejoin="round"/>
</svg>
